<svg width="132" height="36" viewBox="0 0 132 36" fill="none" xmlns="http://www.w3.org/2000/svg">
<path d="M7.35922 4.45312C4.61429 6.62062 2.53569 9.59808 1.48729 13.0318C15.635 22.384 16.4173 34.4285 16.4582 35.446C16.8767 35.4848 17.2997 35.5054 17.7249 35.5145C19.4215 15.1491 10.4225 6.70504 7.35922 4.45312Z" fill="#79197E"/>
<path d="M0.782232 16.9336C0.750394 17.358 0.729927 17.7846 0.729927 18.2158C0.729927 27.0136 8.0073 34.2827 16.4581 35.444C13.0105 24.1137 4.27992 18.7885 0.782232 16.9336Z" fill="#933093"/>
<path d="M28.0019 4.45312C30.7468 6.62062 32.8254 9.59808 33.8738 13.0318C19.7261 22.384 18.9438 34.4285 18.9029 35.446C18.4844 35.4848 18.0614 35.5054 17.6362 35.5145C15.9396 15.1491 24.9408 6.70504 28.0019 4.45312Z" fill="#933093"/>
<path d="M34.5788 16.8477C34.6106 17.272 34.6311 17.6987 34.6311 18.1299C34.6311 26.9277 27.3537 34.2857 18.9029 35.4471C22.3506 24.1145 31.0811 18.7026 34.5788 16.8477Z" fill="#79197E"/>
<path d="M12.0735 2.0326C14.8776 2.83571 17.0585 5.14238 17.6794 8.02629V0.734383C15.669 0.732102 13.7678 1.20211 12.0735 2.0326Z" fill="#FF9C00"/>
<path d="M17.6817 0.732422V8.02434C18.3025 5.14043 20.4834 2.83147 23.2875 2.03064C21.5955 1.20243 19.692 0.732422 17.6817 0.732422Z" fill="#F58600"/>
<path d="M55.0896 26.1905H47.769V7.9082H53.7888C57.83 7.9082 59.5925 10.3837 59.5925 12.7497C59.5925 14.5727 58.3462 15.9051 56.9886 16.4778C58.751 16.8588 60.7569 18.4628 60.7569 20.8584C60.7569 24.3675 57.9642 26.1905 55.0896 26.1905ZM53.3817 11.2553H51.6738V15.2549H53.4363C54.9009 15.2549 55.8219 14.5202 55.8219 13.1878C55.8219 12.1246 55.0623 11.2553 53.3817 11.2553ZM54.0867 18.5997H51.6738V22.8434H54.4119C55.8492 22.8434 56.8248 21.9718 56.8248 20.7489C56.8248 19.4712 55.8492 18.5997 54.0867 18.5997Z" fill="black"/>
<path d="M69.3078 7.9082H65.403V26.1905H69.3078V7.9082Z" fill="black"/>
<path d="M87.8105 26.1905L78.5387 14.2738V26.1905H74.6316V7.9082H78.5387L87.5672 19.4986V7.9082H91.4719V26.1905H87.8105Z" fill="black"/>
<path d="M108.376 26.1905L107.048 22.435H100.241L98.913 26.1905H94.7649L101.842 7.9082H105.449L112.526 26.1905H108.376ZM103.657 12.9414L101.46 19.0628H105.827L103.657 12.9414Z" fill="black"/>
<path d="M126.365 26.1905L121.537 19.3343H120.099V26.1905H116.195V7.9082H122.214C127.286 7.9082 128.261 11.8257 128.261 13.5665C128.261 15.8777 126.961 17.4018 125.359 18.3282L131.27 26.1905H126.365ZM121.835 11.5542H120.099V15.8253H121.78C123.652 15.8253 124.357 14.8191 124.357 13.6486C124.357 12.3687 123.463 11.5542 121.835 11.5542Z" fill="black"/>
</svg>
